<?xml version="1.0" encoding="UTF-8" standalone="no"?>
<!-- Created with Inkscape (http://www.inkscape.org/) -->

<svg
   width="99mm"
   height="99mm"
   viewBox="0 0 99 99"
   version="1.1"
   id="svg5"
   inkscape:export-filename="/home/kike/Desktop/codes/react/we_control/src/we_control.png"
   inkscape:export-xdpi="96"
   inkscape:export-ydpi="96"
   inkscape:version="1.1.2 (0a00cf5339, 2022-02-04)"
   sodipodi:docname="we_control.svg"
   xmlns:inkscape="http://www.inkscape.org/namespaces/inkscape"
   xmlns:sodipodi="http://sodipodi.sourceforge.net/DTD/sodipodi-0.dtd"
   xmlns="http://www.w3.org/2000/svg"
   xmlns:svg="http://www.w3.org/2000/svg">
  <sodipodi:namedview
     id="namedview7"
     pagecolor="#ffffff"
     bordercolor="#666666"
     borderopacity="1.0"
     inkscape:pageshadow="2"
     inkscape:pageopacity="0.0"
     inkscape:pagecheckerboard="0"
     inkscape:document-units="mm"
     showgrid="false"
     inkscape:zoom="1.956667"
     inkscape:cx="178.62007"
     inkscape:cy="181.68651"
     inkscape:window-width="1920"
     inkscape:window-height="1016"
     inkscape:window-x="0"
     inkscape:window-y="27"
     inkscape:window-maximized="1"
     inkscape:current-layer="layer1" />
  <defs
     id="defs2" />
  <g
     inkscape:groupmode="layer"
     id="layer2"
     inkscape:label="background">
    <circle
       style="fill:#000000;stroke-width:0.930641"
       id="path845"
       cx="50.422276"
       cy="49.789169"
       r="44.473469" />
  </g>
  <g
     inkscape:label="Layer 1"
     inkscape:groupmode="layer"
     id="layer1">
    <path
       style="fill:#e5f301;fill-opacity:1;stroke-width:0.400978"
       d="M 42.661729,98.079132 C 30.653161,96.348662 18.55154,89.206806 11.141302,79.477125 -2.1444242,62.032938 -2.402561,37.882248 10.51088,20.495696 15.001397,14.449681 22.841176,8.034524 29.252845,5.1594424 42.599183,-0.82522784 57.544476,-0.83354804 70.466624,5.1364976 80.64562,9.8392085 89.320869,18.422993 94.179094,28.598976 c 3.241418,6.789409 4.552077,12.819533 4.565504,21.005242 0.01364,8.144752 -1.423897,14.629119 -4.707128,21.236576 C 86.802758,85.400572 73.697843,95.232064 57.946632,97.916669 54.133564,98.56655 46.599918,98.64663 42.661729,98.079132 Z M 52.666141,86.076899 c 1.127418,-1.10702 1.050263,-3.47846 -0.14458,-4.446052 -2.085205,-1.688491 -5.248499,-0.433103 -5.248499,2.082917 0,3.214169 3.129786,4.585569 5.393154,2.363135 z M 28.327929,63.505301 c 2.854099,-1.035275 4.910798,-3.99693 4.910798,-7.071566 v -1.616792 h -2.205386 -2.205385 v 1.434279 c 0,2.237499 -1.76419,3.778454 -4.325841,3.778454 -1.363111,0 -2.294498,-0.246088 -2.983903,-0.788368 -1.659923,-1.305703 -1.996033,-2.723356 -1.847816,-7.793806 0.134123,-4.585888 0.149278,-4.650615 1.391814,-5.892045 1.075209,-1.0743 1.559702,-1.259798 3.361401,-1.286971 1.882339,-0.02834 2.226769,0.104418 3.25474,1.254888 0.721246,0.807221 1.149605,1.732531 1.149605,2.483254 0,1.186401 0.01925,1.196616 2.256413,1.196616 h 2.256397 l -0.191712,-1.995048 c -0.248013,-2.581141 -1.810974,-4.946109 -4.020815,-6.08403 -1.30693,-0.672977 -2.404068,-0.877298 -4.711038,-0.877298 -4.413969,0 -7.171242,1.615352 -8.601915,5.039419 -0.774668,1.85406 -0.861915,10.837571 -0.12897,13.283817 0.595733,1.988349 2.85407,4.344876 4.740047,4.946109 1.838813,0.586184 6.272332,0.580062 7.901596,-0.01061 z m 16.138196,-9.273602 v -9.406794 l 3.308086,-0.116391 3.30807,-0.116391 0.12215,-1.904648 c 0.08578,-1.33724 0.294858,-1.904647 0.701712,-1.904647 0.318727,0 0.579516,-0.225553 0.579546,-0.501225 3e-5,-0.275671 0.631543,-5.282901 1.403377,-11.127162 0.771834,-5.844262 1.403363,-10.851476 1.403378,-11.127163 3e-5,-0.338684 -0.697423,-0.501217 -2.150827,-0.501217 h -2.150888 l -0.223128,1.704153 c -0.122757,0.937298 -0.629816,5.448304 -1.126873,10.024478 -0.497057,4.576173 -1.010815,8.320301 -1.141679,8.320301 -0.13094,0 -0.847473,-4.285453 -1.592437,-9.523237 -0.744965,-5.237785 -1.437704,-9.748791 -1.539425,-10.024478 -0.216385,-0.586379 -7.71775,-0.730027 -7.71775,-0.147762 0,0.431936 -2.294801,16.557311 -2.623242,18.4333 -0.129424,0.739281 -0.32632,1.25316 -0.437543,1.141937 -0.111238,-0.111239 -0.688966,-4.595557 -1.283864,-9.965206 L 32.223153,17.72658 H 30.0243 c -1.959388,0 -2.189746,0.08734 -2.115258,0.801953 0.268866,2.57958 2.587582,20.60098 2.747241,21.352112 0.146852,0.690966 0.471672,0.902213 1.387085,0.902213 1.167034,0 1.195298,0.04744 1.195298,2.004884 v 2.004898 h 3.408322 3.408321 v 9.423009 9.423002 h 2.205385 2.205371 z M 38.589887,39.479504 c 0.125181,-0.716745 0.792051,-5.272868 1.48185,-10.124713 0.689785,-4.851829 1.32492,-8.892467 1.41141,-8.979154 0.08654,-0.08669 0.238587,0.09381 0.338004,0.400973 0.262335,0.810738 2.648611,18.035267 2.646641,19.103868 -0.0015,0.85646 -0.156431,0.902213 -3.053631,0.902213 h -3.051965 z m 18.306588,19.948697 v -4.210269 h 3.565904 c 2.881742,0 3.612612,0.121695 3.809295,0.634256 0.133819,0.34884 0.243391,2.24347 0.243391,4.210284 v 3.576013 h 2.205385 2.205385 v -4.429003 c 0,-4.167743 -0.05804,-4.487046 -0.984232,-5.413205 -0.54131,-0.541332 -1.21797,-0.986225 -1.503659,-0.98868 -0.285704,-0.003 0.08881,-0.483675 0.832182,-1.06942 1.47109,-1.159108 2.457657,-3.086503 2.457657,-4.801333 0,-1.826629 -1.466878,-4.313247 -3.10428,-5.26229 l -1.506963,-0.873449 3.107584,-0.0091 3.107584,-0.0091 v 11.4279 11.427893 h 7.618587 7.61859 V 61.633799 59.628916 H 81.15568 75.74246 v -9.401035 -9.401042 l -1.904644,-0.12215 -1.904648,-0.12215 -0.12215,-1.904647 -0.12215,-1.904648 H 66.49811 61.307351 v -2.794495 -2.794116 l 4.711509,-0.112905 4.711493,-0.112906 0.12215,-1.904647 0.12215,-1.904663 H 66.140934 61.307215 V 24.342666 21.53582 h 5.212733 5.212718 v -2.004898 -2.004891 h -7.41195 -7.411966 l -0.106388,11.528144 -0.106389,11.528121 -2.10515,0.12124 -2.105134,0.121241 v 11.406941 11.406948 h 2.205385 2.205386 z m 0,-11.628395 v -3.007333 h 3.34617 c 3.930596,0 4.673393,0.489071 4.673393,3.077016 0,2.441805 -0.800598,2.937665 -4.743061,2.937665 h -3.276502 z"
       id="path874" />
  </g>
</svg>
